<svg xmlns="http://www.w3.org/2000/svg" width="183" height="38"><path d="M182.4 24.2c0 1.5-.6 2.8-1.9 3.8-1.3 1-2.9 1.4-4.9 1.4h-6.9c-.6 0-.9-.2-1.1-.7-.1-.2-.1-.3-.1-.5V10.6h7.4c2.6 0 4.5.8 5.7 2.3.7.9 1.1 1.9 1.1 3 0 1.5-.7 2.7-2 3.7-.1 0-.1.1-.2.1 1.5.8 2.4 1.9 2.8 3.3.1.4.1.8.1 1.2zm-6.6-9.3c-.3-.1-.6-.2-.9-.2h-2.6v3.4h2.6c.8 0 1.4-.4 1.7-1.1.1-.2.1-.5.1-.7 0-.6-.3-1.1-.9-1.4zm.5 7.1c-.3-.1-.6-.2-.9-.2h-3.1v3.5h3.1c.8 0 1.4-.3 1.7-1 .1-.2.1-.4.1-.6 0-.8-.3-1.4-.9-1.7zm-16.7-3.8c2 1 3.4 1.8 4.2 2.6 1.2 1.1 1.8 2.3 1.8 3.7 0 1.8-.8 3.1-2.4 4-1.1.6-2.5.9-4.1.9h-6.4c-.5 0-.9-.2-1.1-.7-.1-.2-.1-.3-.1-.5v-2.9h7.4c.6 0 1-.2 1.3-.7.1-.2.2-.3.2-.5 0-.5-.6-1.1-1.7-1.7-.3-.1-.7-.4-1.4-.7-1.9-.9-3.3-1.7-4-2.4-1.1-1-1.7-2.2-1.7-3.4 0-2 .9-3.5 2.8-4.4 1.1-.6 2.5-.8 4.1-.8h5.2c.6 0 1 .2 1.2.7v3.5H158c-.6 0-1 .2-1.3.6-.1.1-.2.3-.2.5 0 .5.6 1 1.7 1.6.3.1.8.3 1.4.6zM94.2 28.7c-.1-.2-.1-.3-.1-.5v-9.5l-2.5 5.9H88c-.8 0-1.3-.3-1.7-.9v-.1l-2-4.6v10.5h-3.6c-.6 0-.9-.2-1.1-.7-.1-.2-.1-.3-.1-.5V10.6H83c.8 0 1.4.3 1.7 1v.1l4.4 8.3 5-9.4h3.1c.7 0 1.3.2 1.6.7.1.1.1.3.1.5v17.6h-3.6c-.5 0-.9-.2-1.1-.7zm-21.1-.2c0-.1-.1-.2-.1-.3l-.4-1.5H67l-.6 2.7h-3.6c-.3 0-.6-.2-.8-.5-.1-.1-.1-.3-.1-.4v-.3l4.8-17.6h5.2c.6 0 1.1.3 1.4.9.1.1.1.2.1.4l4.8 17.6h-3.7c-.6-.1-1.1-.4-1.4-1zm-3.3-13.1L68 22.6h3.6l-1.8-7.2zM48 28.7c-.1-.2-.1-.3-.1-.5V10.6h11.7c.5 0 .9.3 1.1.8.1.2.1.3.1.5v2.9h-8.1V18h6.2c.6 0 .9.2 1.1.7.1.2.1.3.1.5v2.7h-7.4v3.4h7c.5 0 .9.2 1.1.7.1.2.1.3.1.5v2.9H49.1c-.5 0-.9-.2-1.1-.7zm-6.5.7c-.8 0-1.4-.3-1.9-1l-3.3-4.7h-.6v5.6h-3.6c-.6 0-.9-.2-1.1-.7-.1-.2-.1-.3-.1-.5V10.6h6.8c2.7 0 4.8.9 6.3 2.6 1 1.2 1.6 2.6 1.6 4.1 0 1.8-.7 3.3-2 4.5-.6.5-1.2.9-1.9 1.2l4.5 6.4h-4.7zm-2-14.2c-.5-.3-1.1-.5-1.8-.5h-2v4.9h2c1.4 0 2.3-.5 2.7-1.4.1-.3.2-.6.2-.9 0-.9-.4-1.6-1.1-2.1zm-15 14.2h-3.6c-.5 0-.9-.2-1.1-.7-.1-.2-.1-.3-.1-.5V14.7H16c-.6 0-.9-.2-1.1-.7-.1-.2-.1-.3-.1-.5v-2.9h13.3c.5 0 .9.3 1.1.8.1.2.1.3.1.5v2.9h-4.8v14.6zM8.1 18.2c2 1 3.4 1.8 4.2 2.6 1.2 1.1 1.8 2.3 1.8 3.7 0 1.8-.8 3.1-2.4 4-1.1.6-2.5.9-4.1.9H1.2c-.5 0-.9-.2-1.1-.7-.1-.2-.1-.3-.1-.5v-2.9h7.4c.6 0 1-.2 1.3-.7.1-.2.2-.3.2-.5 0-.5-.6-1.1-1.7-1.7-.3-.1-.7-.4-1.4-.7-1.9-.9-3.3-1.7-4-2.4-1.1-1-1.7-2.2-1.7-3.4 0-2 .9-3.5 2.8-4.4 1.1-.6 2.5-.9 4.1-.9h5.2c.6 0 1 .2 1.2.7v3.5H6.5c-.6 0-1 .2-1.3.6-.1.1-.2.3-.2.5 0 .5.6 1 1.7 1.6.2.2.7.4 1.4.7z" fill="#fff"/><path d="M136.3 27.3l-8.9-9 .7 5c1 6.9-7.2 11.5-12.1 6.7l-.1-.1-15.7-16c3.5-3.6 9.4-3.7 13-.2l.2.2 8.9 9-.7-5c-1-6.9 7.2-11.5 12.1-6.7l.1.1 15.7 16c-3.5 3.6-9.4 3.7-13 .2l-.2-.2zM117.4 8.1c-1.8-1.9-1.8-4.8 0-6.7 1.8-1.8 4.7-1.9 6.5-.1l.1.1c1.8 1.8 1.8 4.8 0 6.7-1.8 1.8-4.7 1.8-6.6 0 .1 0 .1 0 0 0z" fill="none"/><linearGradient id="a" gradientUnits="userSpaceOnUse" x1="-65.639" y1="167.187" x2="-64.639" y2="167.187" gradientTransform="matrix(49.226 0 0 -31.9988 3331.396 5365.783)"><stop offset="0" stop-color="#30a3e6"/><stop offset="1" stop-color="#00e9b1"/></linearGradient><path d="M136.3 27.3l-8.9-9 .7 5c1 6.9-7.2 11.5-12.1 6.7l-.1-.1-15.7-16c3.5-3.6 9.4-3.7 13-.2l.2.2 8.9 9-.7-5c-1-6.9 7.2-11.5 12.1-6.7l.1.1 15.7 16c-3.5 3.6-9.4 3.7-13 .2l-.2-.2zM117.4 8.1c-1.8-1.9-1.8-4.8 0-6.7 1.8-1.8 4.7-1.9 6.5-.1l.1.1c1.8 1.8 1.8 4.8 0 6.7-1.8 1.8-4.7 1.8-6.6 0 .1 0 .1 0 0 0z" fill="url(#a)"/></svg>