<svg id="Layer_1" data-name="Layer 1" xmlns="http://www.w3.org/2000/svg" viewBox="0 0 115.36 20.45"><defs><style>.cls-1{fill:#6ccce2;}.cls-2{fill:#fff;}</style></defs><path class="cls-1" d="M12.05,35.18c-2.21,0-3.33-.83-3.33-2.53V14.74h6.65V30a.07.07,0,0,0,.07.06h1.5A.06.06,0,0,0,17,30V14.74h6.66V32.65c0,1.7-1.12,2.53-3.33,2.53Z" transform="translate(-8.72 -14.73)"/><path class="cls-1" d="M25.29,35.18V14.74H36.91c2.21,0,3.33.86,3.33,2.59v7.61c0,1.73-1.12,2.59-3.33,2.59H32v7.65Zm8.29-15.26s0-.07-.06-.07H32V22.7h1.57a.06.06,0,0,0,.06-.06Z" transform="translate(-8.72 -14.73)"/><path class="cls-1" d="M45.87,35.18c-2.21,0-3.33-.83-3.33-2.53V21.1H40.91V16.05h1.63V14.74H49.2v1.31h8.28V21.1H49.2V30a.06.06,0,0,0,.06.06H50.8a.06.06,0,0,0,.06-.06V22.41h6.62V32.65c0,1.7-1.12,2.53-3.32,2.53Z" transform="translate(-8.72 -14.73)"/><path class="cls-1" d="M62.38,35.18c-2.21,0-3.33-.83-3.33-2.53V17.33c0-1.73,1.12-2.59,3.33-2.59h8.29c2.21,0,3.33.86,3.33,2.59V32.65c0,1.7-1.12,2.53-3.33,2.53Zm5-15.26s0-.07-.06-.07H65.77s-.06,0-.06.07V30a.06.06,0,0,0,.06.06h1.51a.06.06,0,0,0,.06-.06Z" transform="translate(-8.72 -14.73)"/><path class="cls-2" d="M75.63,35.18V14.73H87.25c2.2,0,3.29.87,3.29,2.6v6c0,1-.54,1.53-1.63,1.66,1.12.16,1.66.71,1.66,1.7v6c0,1.7-1.12,2.53-3.32,2.53Zm8.29-15.26a.08.08,0,0,0-.07-.07H82.29v3.08h1.56a.08.08,0,0,0,.07-.07Zm0,7.13a.07.07,0,0,0-.07-.06H82.29v3.1h1.56a.07.07,0,0,0,.07-.06Z" transform="translate(-8.72 -14.73)"/><path class="cls-2" d="M95.47,35.18c-2.21,0-3.33-.83-3.33-2.53V17.33c0-1.73,1.12-2.6,3.33-2.6h8.29c2.21,0,3.33.87,3.33,2.6V32.65c0,1.7-1.12,2.53-3.33,2.53Zm5-15.26s0-.07-.06-.07H98.86s-.06,0-.06.07V30a.06.06,0,0,0,.06.06h1.51a.06.06,0,0,0,.06-.06Z" transform="translate(-8.72 -14.73)"/><path class="cls-2" d="M117,35.18l-1.6-4.41-1.66,4.41h-5.63l4.16-10.94-3.81-9.51h6.62l1.57,4.42,1.57-4.42h5.28l-3.62,9.35,4.23,11.1Z" transform="translate(-8.72 -14.73)"/></svg>